<?xml version="1.0" encoding="UTF-8"?>
<svg id="_Слой_2" data-name="Слой 2" xmlns="http://www.w3.org/2000/svg" viewBox="0 0 1280 1280">
  <g id="_Слой_1-2" data-name="Слой 1">
    <path d="M1280,619v43c-.38,1.76-1.04,3.51-1.09,5.28-.74,28.25-4.17,56.2-8.97,84.02-9.27,53.69-25.48,105.2-48.11,154.72-28.72,62.85-66.84,119.5-113.83,170.06-26.09,28.07-54.55,53.64-85.34,76.57-43.12,32.12-89.42,58.64-139.14,79.09-46.6,19.16-94.68,33.25-144.66,40.1-22.64,3.1-45.49,4.69-68.24,7.01-1.89,.19-3.75,.75-5.62,1.14h-50c-1.71-.38-3.41-1.05-5.12-1.1-25.39-.82-50.53-3.86-75.6-7.92-32.34-5.23-64.02-13.04-95.07-23.33-87.14-28.85-164.48-74.55-232.13-136.49-26.89-24.62-51.43-51.5-73.72-80.44-41.96-54.49-74.46-114.08-97.2-178.98-12.86-36.7-22.91-74.15-27.95-112.75-3.03-23.15-4.72-46.48-7.06-69.72-.21-2.11-.75-4.18-1.14-6.27,0-15.67,0-31.33,0-47,.37-1.22,.97-2.41,1.08-3.65,1.4-16.86,1.92-33.84,4.28-50.56,3.33-23.53,7.02-47.09,12.32-70.24,10.7-46.66,27.14-91.39,48.37-134.36,27.46-55.57,62.22-106.12,104.28-151.57,26.71-28.86,55.81-55.18,87.44-78.64,46.12-34.21,95.79-61.99,149.32-82.86,43.68-17.03,88.55-29.75,135.04-35.98,23.3-3.12,46.8-4.68,70.21-6.99C614.58,.93,616.78,.39,619,0,633,0,647,0,661,0c2.06,.39,4.1,.99,6.17,1.14,15.24,1.08,30.59,1.25,45.7,3.27,21.75,2.91,43.48,6.41,64.94,10.96,47.35,10.04,92.8,25.92,136.52,46.71,39.5,18.78,76.62,41.48,111.54,67.79,8.56,6.45,16.78,13.34,25.5,20.31-2.26,1.87-3.82,3.36-5.57,4.58-53.23,37.34-106.49,74.63-159.67,112.02-2.84,2-4.7,2.23-7.84,.22-35.17-22.55-72.76-39.88-112.8-51.88-30.52-9.14-61.73-14.8-93.45-17.15-23.24-1.73-46.59-2.26-69.79,.89-20.79,2.82-41.73,5.1-62.2,9.5-36.53,7.86-71.28,21.1-104.44,38.43-54.04,28.24-100.44,65.93-139.01,113.11-29.26,35.79-52.37,75.27-69.28,118.35-19.25,49.03-29.5,99.9-30.29,152.49-.3,19.73,1.38,39.53,2.86,59.24,1.8,23.97,6.86,47.42,13.52,70.47,26.25,90.84,76.09,166.07,149.73,225.49,37.2,30.02,78.26,53.22,123.02,69.85,46.32,17.22,94.27,26.37,143.66,27.23,16.76,.29,33.59-.7,50.33-1.97,13.68-1.03,27.39-2.72,40.88-5.21,36.69-6.79,72.01-18.06,105.85-33.88,33.98-15.88,65.44-35.77,94.41-59.55,20.12-16.51,38.78-34.57,55.48-54.55,9.02-10.79,17.52-22.01,26.62-33.5-54.44-38.12-108.15-75.73-161.85-113.33-90.08,126.12-265.16,139.31-372.47,35.97-100.11-96.4-103.33-262.56,8.67-361.75,104.57-92.61,273.23-81.99,363.84,43.83,107.36-75.17,214.73-150.35,322.19-225.59,.84,.92,1.47,1.47,1.93,2.14,22.45,32.56,42.02,66.75,58.14,102.87,23.35,52.3,40.15,106.59,48.01,163.4,3.2,23.14,4.71,46.5,7.02,69.76,.24,2.45,.76,4.88,1.14,7.32Z"/>
  </g>
</svg>