<svg width="104" height="30" viewBox="0 0 104 30" fill="none" xmlns="http://www.w3.org/2000/svg">
<path fill-rule="evenodd" clip-rule="evenodd" d="M101.911 14.152C100.519 15.4054 98.3812 16.0318 95.4997 16.0318H93.093V20.5701H88.1021V0.429857H96.3464C97.8761 0.429857 99.2151 0.709747 100.363 1.26881C101.51 1.82859 102.403 2.69224 103.042 3.86048C103.681 5.02836 104 6.49438 104 8.25784C104 10.9343 103.304 12.8989 101.911 14.152ZM98.5689 6.54557C98.372 6.12931 98.0804 5.83868 97.6943 5.67297C97.308 5.50761 96.8067 5.42457 96.1902 5.42457H93.093V11.0371H95.6779C96.7547 11.0371 97.5551 10.8313 98.0786 10.4193C98.6022 10.0077 98.8641 9.2872 98.8641 8.25784C98.8641 7.5327 98.7655 6.96182 98.5689 6.54557ZM81.8409 19.8318C80.5782 20.6106 79.1373 21 77.5182 21C75.5575 21 73.9476 20.6217 72.6888 19.8654C71.4296 19.1091 70.4938 17.9452 69.8812 16.3743C69.2685 14.8034 68.9582 12.7873 68.9507 10.3255C68.9507 8.09642 69.3223 6.20555 70.065 4.65255C70.8077 3.09955 71.8103 1.93597 73.073 1.16144C74.3355 0.387265 75.7428 0 77.2954 0C79.2858 0 80.9123 0.380465 82.175 1.14139C83.4378 1.90232 84.3735 3.06806 84.9826 4.63895C85.5914 6.2102 85.8961 8.22634 85.8961 10.6881C85.8961 12.9079 85.5359 14.7923 84.8154 16.3407C84.095 17.8894 83.1034 19.0529 81.8409 19.8318ZM79.7743 6.54557C79.1539 5.70876 78.3239 5.29036 77.2841 5.29036C76.6528 5.29036 76.109 5.43137 75.652 5.71341C75.1952 5.99509 74.8294 6.50763 74.5546 7.25066C74.2799 7.99369 74.1424 9.01877 74.1424 10.3255C74.1499 13.9419 75.29 15.7501 77.5627 15.7501C78.2015 15.7501 78.7491 15.6091 79.2062 15.327C79.6629 15.045 80.0267 14.5303 80.2979 13.783C80.569 13.0357 80.7044 12.0038 80.7044 10.6881C80.7044 8.76357 80.3944 7.38273 79.7743 6.54557ZM63.0127 20.5701H58.0328V5.73346H52.6629V0.429857H68.3939V5.73346H63.0127V20.5701ZM46.8698 11.5875L52.4179 20.5701H46.2568L41.5554 11.9369H41.1099L41.2881 20.5701H36.2413V0.429857H41.2881L41.1099 9.07675H41.5444L46.3572 0.429857H52.0947L46.5244 9.4794L42.9815 10.2181V10.8223L46.8698 11.5875ZM18.8837 0.429857H33.8459V5.27675H23.875V8.74102H32.8766V12.2722H23.875V15.7365H33.8795V20.5701H18.8837V0.429857ZM13.4025 20.0401C12.162 20.6797 10.6581 21 8.89054 21C5.9196 21 3.69496 20.1317 2.21692 18.3951C0.738873 16.6585 0 13.9687 0 10.3255C0 8.07888 0.375079 6.1787 1.12524 4.62571C1.8754 3.07271 2.86878 1.91557 4.10538 1.15464C5.34198 0.394065 6.68817 0.0136008 8.14394 0.0136008C10.5578 0.0136008 12.4685 0.577318 13.8759 1.70511C15.2835 2.83326 16.039 4.57882 16.1433 6.94178V7.18337L10.7288 8.88884C10.7656 8.55777 10.7843 8.28468 10.7843 8.06957C10.7843 7.19268 10.5485 6.54127 10.077 6.11607C9.60506 5.69086 8.99804 5.47826 8.25531 5.47826C7.35666 5.47826 6.62492 5.83868 6.06066 6.55917C5.49611 7.27965 5.21399 8.53522 5.21399 10.3255C5.21399 12.2948 5.52047 13.6821 6.13313 14.4877C6.74578 15.2934 7.63166 15.6964 8.79016 15.6964C9.36213 15.6964 9.87827 15.598 10.3389 15.4008C10.7992 15.2039 11.1668 14.9065 11.4418 14.5081C11.7163 14.1098 11.854 13.6241 11.854 13.051C11.854 12.6663 11.7834 12.3084 11.6423 11.9769L17.0568 12.8363C17.1087 13.2572 17.1346 13.6198 17.1346 13.924C17.1346 15.2129 16.8227 16.3943 16.1988 17.4688C15.5748 18.5429 14.6426 19.4001 13.4025 20.0401Z" fill="#F3B84B"/>
<path fill-rule="evenodd" clip-rule="evenodd" d="M104 28.0369V29.2767H100.347V24.1102H103.992V25.3534H101.563V26.2422H103.756V27.148H101.563V28.0369H104ZM98.458 25.3259H98.3303L97.4729 29.2767H95.622V24.1102H96.8188V28.0576H96.9462L97.8039 24.1102H99.6385L99.6548 29.2767H98.458V25.3259ZM93.7086 27.3925H92.213V29.2767H90.9973V24.1102H92.213V26.032H93.7086V24.1102H94.9216V29.2767H93.7086V27.3925ZM89.1381 28.5052H87.5694L87.412 29.2767H86.1257L87.2789 24.1102H89.4638L90.6173 29.2767H89.2982L89.1381 28.5052ZM88.4161 25.0261H88.2914L87.8192 27.3271H88.8886L88.4161 25.0261ZM85.747 27.0946C85.936 27.2842 86.0306 27.5396 86.0306 27.8612C86.0306 28.3434 85.875 28.7 85.5638 28.9306C85.2526 29.1616 84.7941 29.2767 84.1877 29.2767H82.0304V24.1102H84.006C84.5976 24.1102 85.0526 24.2253 85.3712 24.4563C85.6895 24.6872 85.8489 25.0322 85.8489 25.4914C85.8489 25.6912 85.8172 25.8604 85.7538 25.9992C85.6904 26.1384 85.5878 26.2532 85.4458 26.3438C85.3036 26.4345 85.1142 26.5018 84.8771 26.5454V26.7279C85.268 26.7831 85.5579 26.9054 85.747 27.0946ZM84.5066 25.505C84.4568 25.4294 84.3884 25.3782 84.3003 25.3519C84.2126 25.3256 84.1018 25.3124 83.9681 25.3124H83.2461V26.2768H83.8377C84.0819 26.2768 84.2668 26.2434 84.3928 26.1768C84.5185 26.1102 84.5813 25.9955 84.5813 25.8322C84.5813 25.6901 84.5564 25.581 84.5066 25.505ZM84.5555 27.1706C84.4171 27.0961 84.2132 27.0585 83.9435 27.0585H83.2461V28.0749H84.1498C84.2855 28.0749 84.3973 28.0609 84.485 28.0335C84.5727 28.0056 84.6412 27.9541 84.6901 27.8785C84.7387 27.8025 84.7633 27.6946 84.7633 27.5546C84.7633 27.3733 84.6939 27.2451 84.5555 27.1706ZM80.5049 29.0875C80.1973 29.2872 79.8464 29.3869 79.4519 29.3869C78.9741 29.3869 78.582 29.2898 78.2756 29.0961C77.9688 28.902 77.7409 28.6033 77.5915 28.2005C77.4421 27.7973 77.3666 27.28 77.3648 26.6489C77.3648 26.0767 77.4552 25.5919 77.6363 25.1935C77.8171 24.7952 78.0616 24.4965 78.3689 24.2979C78.6766 24.0993 79.0195 24 79.3977 24C79.8825 24 80.2788 24.0974 80.5864 24.2926C80.8941 24.4879 81.122 24.7869 81.2702 25.1898C81.4187 25.593 81.4928 26.1102 81.4928 26.7418C81.4928 27.3113 81.405 27.7946 81.2296 28.1918C81.0541 28.5891 80.8126 28.8877 80.5049 29.0875ZM80.0014 25.6791C79.8505 25.4644 79.6481 25.3572 79.395 25.3572C79.2412 25.3572 79.1087 25.3933 78.9972 25.4655C78.8861 25.5377 78.7969 25.6694 78.7299 25.8601C78.6629 26.0504 78.6297 26.3133 78.6297 26.6489C78.6315 27.5765 78.9092 28.0402 79.4629 28.0402C79.6185 28.0402 79.7518 28.0041 79.863 27.9319C79.9744 27.8593 80.063 27.7273 80.1291 27.5355C80.1952 27.344 80.2281 27.0792 80.2281 26.7418C80.2281 26.2479 80.1525 25.8939 80.0014 25.6791ZM75.8559 29.2767H73.5356V30H72.3249V27.9955H72.428C72.6382 27.9955 72.7973 27.9376 72.9058 27.8217C73.0143 27.7055 73.0913 27.5027 73.1364 27.2135C73.1817 26.9242 73.2042 26.4984 73.2042 25.9357V24.1102H76.518V27.9955H77.069V30H75.8559V29.2767ZM75.305 25.3914H74.3877V26.0425C74.3877 26.4123 74.3717 26.7124 74.3403 26.943C74.3085 27.174 74.2522 27.3594 74.1719 27.4993C74.0913 27.6396 73.9778 27.7427 73.8314 27.8093V27.9955H75.305V25.3914ZM71.2843 28.6981C71.1296 28.9554 70.9509 29.1337 70.7482 29.2338C70.5454 29.3338 70.2959 29.3835 69.9992 29.3835C69.7894 29.3835 69.5754 29.3538 69.3572 29.294C69.1391 29.2345 68.9435 29.1552 68.7698 29.0562L69.1145 27.7991C69.2861 27.9093 69.4408 27.9932 69.5783 28.0504C69.7159 28.108 69.8463 28.1365 69.9693 28.1365C70.1086 28.1365 70.2203 28.097 70.3045 28.0177C70.3886 27.9387 70.4595 27.7946 70.5176 27.5855H69.4862L68.3869 24.1102H69.6815L70.5282 27.031H70.6504L71.3723 24.1102H72.6562L71.7034 27.6028C71.5786 28.076 71.439 28.4409 71.2843 28.6981ZM66.3028 28.1125H65.7165V29.2767H64.5005V24.1102H66.5091C66.8816 24.1102 67.2079 24.1821 67.4874 24.3254C67.7669 24.4691 67.9844 24.6906 68.14 24.99C68.2956 25.2898 68.3736 25.666 68.3736 26.1181C68.3736 26.805 68.2037 27.309 67.8647 27.6302C67.5253 27.9519 67.0046 28.1125 66.3028 28.1125ZM67.0502 25.6791C67.0025 25.5723 66.9314 25.4978 66.8374 25.4553C66.7432 25.4128 66.6211 25.3914 66.4708 25.3914H65.7165V26.8313H66.346C66.6083 26.8313 66.8034 26.7783 66.9311 26.6729C67.0585 26.5672 67.1223 26.3822 67.1223 26.1181C67.1223 25.9323 67.0983 25.786 67.0502 25.6791ZM62.9753 29.0875C62.6677 29.2872 62.3168 29.3869 61.9223 29.3869C61.4445 29.3869 61.0524 29.2898 60.7457 29.0961C60.4392 28.902 60.211 28.6033 60.0619 28.2005C59.9126 27.7973 59.837 27.28 59.8352 26.6489C59.8352 26.0767 59.9256 25.5919 60.1067 25.1935C60.2875 24.7952 60.5317 24.4965 60.8393 24.2979C61.147 24.0993 61.4899 24 61.8681 24C62.3529 24 62.7492 24.0974 63.0568 24.2926C63.3645 24.4879 63.5924 24.7869 63.7406 25.1898C63.8891 25.593 63.9632 26.1102 63.9632 26.7418C63.9632 27.3113 63.8754 27.7946 63.7 28.1918C63.5245 28.5891 63.283 28.8877 62.9753 29.0875ZM62.4718 25.6791C62.3209 25.4644 62.1185 25.3572 61.8654 25.3572C61.7116 25.3572 61.5791 25.3933 61.4677 25.4655C61.3565 25.5377 61.2673 25.6694 61.2003 25.8601C61.1333 26.0504 61.0999 26.3133 61.0999 26.6489C61.1016 27.5765 61.3796 28.0402 61.9333 28.0402C62.0889 28.0402 62.2222 28.0041 62.3334 27.9319C62.4448 27.8593 62.5334 27.7273 62.5995 27.5355C62.6656 27.344 62.6985 27.0792 62.6985 26.7418C62.6985 26.2479 62.6229 25.8939 62.4718 25.6791ZM57.7591 26.1666C58.3797 26.1666 58.832 26.296 59.1162 26.5556C59.4001 26.8151 59.5421 27.1988 59.5421 27.7062C59.5421 28.2159 59.3969 28.6052 59.1064 28.8738C58.8163 29.1424 58.359 29.2767 57.7348 29.2767H55.634V24.1102H59.1621V25.35H56.8498V26.1666H57.7591ZM56.8498 28.0369H57.6939C57.9073 28.0369 58.0602 27.9996 58.1527 27.9248C58.2448 27.8503 58.2911 27.7337 58.2911 27.5753C58.2911 27.4147 58.2451 27.2962 58.1539 27.2206C58.0626 27.1446 57.9102 27.1066 57.6965 27.1066H56.8498V28.0369ZM54.1089 29.0875C53.8012 29.2872 53.45 29.3869 53.0559 29.3869C52.5781 29.3869 52.186 29.2898 51.8792 29.0961C51.5725 28.902 51.3446 28.6033 51.1952 28.2005C51.0461 27.7973 50.9705 27.28 50.9688 26.6489C50.9688 26.0767 51.0592 25.5919 51.2399 25.1935C51.421 24.7952 51.6652 24.4965 51.9729 24.2979C52.2805 24.0993 52.6231 24 53.0013 24C53.4862 24 53.8825 24.0974 54.1901 24.2926C54.4977 24.4879 54.7256 24.7869 54.8741 25.1898C55.0223 25.593 55.0967 26.1102 55.0967 26.7418C55.0967 27.3113 55.009 27.7946 54.8335 28.1918C54.6578 28.5891 54.4162 28.8877 54.1089 29.0875ZM53.6053 25.6791C53.4542 25.4644 53.2521 25.3572 52.9987 25.3572C52.8448 25.3572 52.7124 25.3933 52.6012 25.4655C52.4898 25.5377 52.4009 25.6694 52.3339 25.8601C52.2669 26.0504 52.2334 26.3133 52.2334 26.6489C52.2352 27.5765 52.5129 28.0402 53.0665 28.0402C53.2221 28.0402 53.3555 28.0041 53.4669 27.9319C53.5781 27.8593 53.6667 27.7273 53.7328 27.5355C53.7989 27.344 53.8321 27.0792 53.8321 26.7418C53.8321 26.2479 53.7565 25.8939 53.6053 25.6791ZM45.6953 24.1102H49.3402V25.3534H46.9113V26.2422H49.1042V27.148H46.9113V28.0369H49.3485V29.2767H45.6953V24.1102ZM44.1701 29.0875C43.8625 29.2872 43.5116 29.3869 43.1171 29.3869C42.6393 29.3869 42.2472 29.2898 41.9405 29.0961C41.634 28.902 41.4058 28.6033 41.2567 28.2005C41.1074 27.7973 41.0318 27.28 41.03 26.6489C41.03 26.0767 41.1204 25.5919 41.3015 25.1935C41.4823 24.7952 41.7265 24.4965 42.0341 24.2979C42.3418 24.0993 42.6847 24 43.0629 24C43.5477 24 43.944 24.0974 44.2516 24.2926C44.559 24.4879 44.7872 24.7869 44.9354 25.1898C45.0839 25.593 45.158 26.1102 45.158 26.7418C45.158 27.3113 45.0702 27.7946 44.8948 28.1918C44.7193 28.5891 44.4778 28.8877 44.1701 29.0875ZM43.6666 25.6791C43.5157 25.4644 43.3133 25.3572 43.0602 25.3572C42.9064 25.3572 42.7739 25.3933 42.6625 25.4655C42.5513 25.5377 42.4621 25.6694 42.3951 25.8601C42.3281 26.0504 42.2947 26.3133 42.2947 26.6489C42.2964 27.5765 42.5744 28.0402 43.1281 28.0402C43.2837 28.0402 43.417 28.0041 43.5282 27.9319C43.6396 27.8593 43.7282 27.7273 43.7943 27.5355C43.8604 27.344 43.8933 27.0792 43.8933 26.7418C43.8933 26.2479 43.8177 25.8939 43.6666 25.6791ZM39.2796 27.3925H37.7841V29.2767H36.5683V24.1102H37.7841V26.032H39.2796V24.1102H40.4927V29.2767H39.2796V27.3925ZM34.1798 29.2767H32.3479V24.1102H33.5639V25.5637H34.1798C34.8348 25.5637 35.3215 25.7175 35.6401 26.0252C35.9584 26.3329 36.1178 26.7978 36.1178 27.4204C36.1178 28.0425 35.9584 28.5074 35.6401 28.8151C35.3215 29.1232 34.8348 29.2767 34.1798 29.2767ZM34.7118 26.9622C34.6069 26.8655 34.4332 26.8174 34.1908 26.8174H33.545V28.0229H34.1908C34.4332 28.0229 34.6069 27.9748 34.7118 27.8785C34.8167 27.7818 34.8692 27.6291 34.8692 27.4204C34.8692 27.2112 34.8167 27.0585 34.7118 26.9622ZM30.4318 25.4741H29.3272V27.0276C29.3272 27.6201 29.2762 28.0891 29.174 28.4348C29.0717 28.7801 28.9283 29.025 28.7439 29.1683C28.5593 29.3116 28.3323 29.3835 28.0626 29.3835C27.8112 29.3835 27.5958 29.341 27.4168 29.256V27.7957C27.4692 27.821 27.5175 27.8394 27.562 27.8507C27.6061 27.8623 27.6545 27.868 27.7072 27.868C27.8104 27.868 27.8939 27.8428 27.9582 27.7924C28.0223 27.7416 28.0709 27.6509 28.1035 27.52C28.1358 27.3891 28.1521 27.2044 28.1521 26.9656V24.1102H31.6479V29.2767H30.4318V25.4741ZM25.7965 28.5052H24.2277L24.0704 29.2767H22.7841L23.9373 24.1102H26.1222L27.2757 29.2767H25.9565L25.7965 28.5052ZM25.0745 25.0261H24.9497L24.4776 27.3271H25.5469L25.0745 25.0261ZM21.2153 25.3259H21.0876L20.2302 29.2767H18.379V24.1102H19.5761V28.0576H19.7035L20.5612 24.1102H22.3958L22.4121 29.2767H21.2153V25.3259ZM16.607 29.2767H13.4858V24.1102H14.7015V27.9127H16.0533V24.1102H17.2664V27.9127H17.8174V30H16.607V29.2767ZM9.25737 24.1102H12.9022V25.3534H10.4734V26.2422H12.6663V27.148H10.4734V28.0369H12.9105V29.2767H9.25737V24.1102ZM7.34129 25.4741H5.87866V29.2767H4.66262V24.1102H8.55733V29.2767H7.34129V25.4741ZM3.2649 29.1409C2.96289 29.3049 2.59627 29.3869 2.16593 29.3869C1.44218 29.3869 0.900101 29.1642 0.540001 28.7188C0.179902 28.2735 0 27.5832 0 26.6489C0 26.0722 0.0912845 25.5851 0.27415 25.1864C0.457015 24.788 0.69886 24.4913 1.00028 24.296C1.3014 24.1008 1.62919 24.0034 1.98396 24.0034C2.57197 24.0034 3.03728 24.1478 3.38019 24.4375C3.7231 24.7267 3.90715 25.1743 3.93264 25.7807V25.8428L2.61346 26.2802C2.62265 26.1952 2.6271 26.1253 2.6271 26.07C2.6271 25.845 2.5696 25.678 2.4549 25.5689C2.33991 25.4598 2.19201 25.4053 2.01122 25.4053C1.7922 25.4053 1.61378 25.4978 1.47656 25.6825C1.33904 25.8672 1.27028 26.1896 1.27028 26.6489C1.27028 27.154 1.34467 27.5099 1.49404 27.7164C1.64342 27.9233 1.85918 28.0263 2.14133 28.0263C2.28063 28.0263 2.40629 28.0011 2.51862 27.9507C2.63065 27.9003 2.72046 27.824 2.78744 27.7216C2.85412 27.6193 2.88761 27.4948 2.88761 27.3478C2.88761 27.2492 2.87042 27.1574 2.83604 27.0724L4.15522 27.2928C4.16767 27.4008 4.17419 27.4937 4.17419 27.5719C4.17419 27.9026 4.09802 28.2058 3.94628 28.4811C3.79423 28.7568 3.56721 28.9765 3.2649 29.1409Z" fill="#F3B84B"/>
</svg>
